<?xml version="1.0" encoding="UTF-8"?>
<svg version="1.1" xmlns="http://www.w3.org/2000/svg" width="400" height="401">
<path d="M0 0 C1.06089041 -0.00445784 2.12178082 -0.00891569 3.21481943 -0.01350862 C4.37423595 -0.01332426 5.53365247 -0.01313989 6.72820282 -0.01294994 C7.96470251 -0.01662663 9.20120219 -0.02030332 10.47517157 -0.02409142 C13.90486867 -0.0332023 17.33451798 -0.03782445 20.76422262 -0.04048073 C24.46449365 -0.04439076 28.16475091 -0.05396866 31.86501312 -0.0626936 C40.80040421 -0.08243907 49.7357964 -0.09252213 58.67120385 -0.10142139 C62.88243957 -0.10580774 67.09367403 -0.11117368 71.30490875 -0.11641026 C85.31011189 -0.1334212 99.31531425 -0.14791416 113.32052612 -0.155159 C116.95344799 -0.15706879 120.58636985 -0.15898914 124.21929169 -0.16094494 C125.57365571 -0.16167055 125.57365571 -0.16167055 126.95538062 -0.16241082 C141.57360247 -0.17070662 156.19174238 -0.19603652 170.80992848 -0.22852562 C185.829146 -0.26163295 200.84832193 -0.27961111 215.86757612 -0.28280324 C224.29582521 -0.28496502 232.72395483 -0.29366483 241.15216827 -0.31926441 C248.3318379 -0.34102173 255.51135901 -0.34899721 262.69105786 -0.33929763 C266.35045077 -0.33476733 270.0095376 -0.33656433 273.66888809 -0.35605907 C277.6469554 -0.37706749 281.62460623 -0.36665907 285.60271454 -0.35352612 C286.74428528 -0.36449536 287.88585603 -0.37546461 289.06201982 -0.38676625 C305.88370885 -0.25332989 319.64402759 6.69122036 331.67339325 18.13422108 C342.43943048 30.49048791 346.98364448 43.42838336 346.94081879 59.55016041 C346.9453499 60.80132517 346.94988101 62.05248993 346.95454943 63.34156877 C346.96675095 66.80289584 346.96652234 70.26412605 346.96416068 73.72546971 C346.96375179 77.46318582 346.97479867 81.20087118 346.98427582 84.93857288 C347.00087172 92.25760793 347.00638475 99.57661076 347.00750057 106.89566305 C347.00845182 112.84743855 347.01256597 118.79920346 347.01890182 124.75097561 C347.03651126 141.63745722 347.04574129 158.52391343 347.04424088 175.41040429 C347.04416096 176.32030143 347.04408105 177.23019856 347.04399872 178.16766834 C347.04391696 179.07868084 347.0438352 179.98969334 347.04375096 180.92831228 C347.04293839 195.68611753 347.06206937 210.44382063 347.09027545 225.20159634 C347.11903043 240.36664959 347.13281427 255.53165306 347.1310879 270.69673425 C347.13042485 279.20595636 347.13587982 287.71507141 347.157444 296.22426891 C347.17569034 303.47053438 347.17997497 310.71664429 347.16642515 317.96292283 C347.15991252 321.65662806 347.15971596 325.35003513 347.17713165 329.04371166 C347.19585951 333.05715252 347.1832634 337.06990852 347.16786957 341.08336353 C347.17815669 342.23815572 347.18844382 343.39294792 347.19904268 344.58273381 C347.07387527 359.40232731 341.08194209 373.21774522 330.93120575 384.00531483 C317.90098788 396.29159292 303.89993094 401.44913272 286.25782013 401.40164661 C285.01875717 401.40617773 283.77969421 401.41070884 282.50308388 401.41537726 C279.08010828 401.42581773 275.65734346 401.42735222 272.23436701 401.42498851 C268.53618607 401.42457918 264.83803608 401.43563059 261.13986969 401.44510365 C253.90017921 401.46169004 246.66052131 401.46721214 239.42081342 401.4683284 C233.53295292 401.46928008 227.64510313 401.47339635 221.75724602 401.47972965 C205.04775075 401.49733629 188.33828114 401.50656953 171.62877653 401.5050687 C170.7286685 401.50498879 169.82856048 401.50490888 168.90117645 401.50482655 C167.99996361 401.50474478 167.09875077 401.50466302 166.17022844 401.50457878 C151.57159175 401.50376624 136.97305833 401.52289746 122.3744515 401.55110328 C107.36869344 401.57986591 92.36298568 401.59364169 77.35719937 401.59191573 C68.93906268 401.59125295 60.52103423 401.59669575 52.10292244 401.61827183 C44.93429663 401.63652825 37.7658281 401.64079456 30.59718905 401.62725298 C26.94385709 401.62074547 23.2908265 401.62052501 19.63752365 401.63795948 C15.66617303 401.65671577 11.69525694 401.64407766 7.72388458 401.6286974 C6.014598 401.64412808 6.014598 401.64412808 4.27078038 401.65987051 C-12.54425016 401.5166559 -26.3016038 394.57307174 -38.32660675 383.13422108 C-49.09264398 370.77795424 -53.63685798 357.84005879 -53.59403229 341.71828175 C-53.5985634 340.46711699 -53.60309451 339.21595223 -53.60776293 337.92687339 C-53.61996445 334.46554631 -53.61973584 331.0043161 -53.61737418 327.54297245 C-53.61696529 323.80525633 -53.62801217 320.06757097 -53.63748932 316.32986927 C-53.65408522 309.01083422 -53.65959825 301.6918314 -53.66071407 294.37277911 C-53.66166532 288.4210036 -53.66577947 282.4692387 -53.67211533 276.51746655 C-53.68972477 259.63098494 -53.69895479 242.74452872 -53.69745438 225.85803787 C-53.69737447 224.94814073 -53.69729455 224.03824359 -53.69721222 223.10077381 C-53.69713046 222.18976131 -53.6970487 221.27874881 -53.69696446 220.34012987 C-53.69615189 205.58232463 -53.71528287 190.82462152 -53.74348895 176.06684581 C-53.77224393 160.90179257 -53.78602777 145.73678909 -53.7843014 130.5717079 C-53.78363835 122.0624858 -53.78909332 113.55337074 -53.8106575 105.04417324 C-53.82890384 97.79790777 -53.83318847 90.55179786 -53.81963865 83.30551932 C-53.81312602 79.6118141 -53.81292946 75.91840702 -53.83034515 72.22473049 C-53.84907301 68.21128963 -53.8364769 64.19853364 -53.82108307 60.18507862 C-53.8313702 59.03028643 -53.84165732 57.87549424 -53.85225618 56.68570834 C-53.72716693 41.87536908 -47.74231481 28.02478632 -37.5727005 17.25922108 C-27.44902965 7.68134813 -14.25101246 0.02787095 0 0 Z " fill="#0E1700" transform="translate(53.32660675048828,-0.13422107696533203)"/>
<path d="M0 0 C1.93426991 0.00119485 3.86854041 0.00164432 5.80281067 0.00138855 C9.83627001 0.00294412 13.86963944 0.0111636 17.90307617 0.0246582 C23.05399826 0.04168082 28.20482223 0.04547093 33.35576916 0.04471302 C37.34248274 0.0449858 41.3291752 0.05048378 45.31588173 0.05771446 C47.21475376 0.06087892 49.11362815 0.06286329 51.01250267 0.06360817 C53.67007851 0.06579358 56.32755354 0.07458372 58.98510742 0.08520508 C59.75676239 0.08475189 60.52841736 0.08429871 61.32345581 0.08383179 C69.69957511 0.13240446 77.15199694 0.80221757 84.83203125 4.29296875 C85.52296875 4.60314941 86.21390625 4.91333008 86.92578125 5.23291016 C100.69947191 11.67886866 109.93292135 22.6002502 117.01953125 35.79296875 C118.14811465 37.84074013 119.27837715 39.88758686 120.41015625 41.93359375 C121.27157227 43.49883789 121.27157227 43.49883789 122.15039062 45.09570312 C124.94737827 50.12276379 127.85767779 55.08185066 130.76953125 60.04296875 C131.93239679 62.03509489 133.09515582 64.02728321 134.2578125 66.01953125 C136.4654725 69.79666648 138.683616 73.56729631 140.91253662 77.33192444 C141.93562095 79.06322646 142.95419975 80.79709539 143.97119141 82.53198242 C145.25081698 84.71382741 146.53771067 86.89143405 147.83349609 89.0637207 C157.18314604 105.0692055 161.71156123 120.96186581 157.64453125 139.35546875 C154.43815351 150.07714591 148.51271706 159.62315602 142.89453125 169.23046875 C142.37681152 170.11621582 141.8590918 171.00196289 141.32568359 171.91455078 C139.24407299 175.46243657 137.15339545 179.00451879 135.04223633 182.53491211 C131.90184606 187.79154108 128.83181655 193.08031397 125.83203125 198.41796875 C125.48424622 199.03481537 125.13646118 199.65166199 124.77813721 200.28720093 C123.08021886 203.29902328 121.39013465 206.31439919 119.71386719 209.33837891 C109.4975201 227.47594416 97.60308648 241.75309399 76.97460938 247.80419922 C67.6755074 250.06804754 58.20377267 249.64169983 48.6953125 249.59375 C46.64894104 249.59323031 44.60256909 249.5937522 42.55619812 249.59526062 C38.28730728 249.59517136 34.0186071 249.58483382 29.74975586 249.56665039 C24.29610656 249.54392176 18.84273417 249.54343204 13.38905048 249.55016804 C9.17070584 249.55351877 4.95242359 249.54685784 0.73409081 249.5370388 C-1.27642299 249.53320882 -3.28694375 249.53202938 -5.29746056 249.53362465 C-8.11079382 249.5339981 -10.9237798 249.52129853 -13.73706055 249.50512695 C-14.55546921 249.50760437 -15.37387787 249.51008179 -16.21708679 249.51263428 C-31.76919634 249.37092734 -45.32697758 242.58031305 -56.578125 232.11328125 C-63.21513869 224.54277723 -68.1051758 215.9662709 -72.91796875 207.16796875 C-74.15227331 204.93804181 -75.38795359 202.70887582 -76.625 200.48046875 C-77.51952881 198.86785156 -77.51952881 198.86785156 -78.43212891 197.22265625 C-80.60393552 193.33913394 -82.83695912 189.49560297 -85.10546875 185.66796875 C-85.48832031 185.01916748 -85.87117188 184.37036621 -86.265625 183.7019043 C-88.10410106 180.59159032 -89.95151132 177.48694693 -91.81103516 174.38916016 C-106.24567627 150.3212391 -106.24567627 150.3212391 -109.10546875 140.23046875 C-109.34394531 139.40417969 -109.58242187 138.57789063 -109.828125 137.7265625 C-116.37520984 110.71441778 -100.43313579 88.97518482 -87.25537109 66.9284668 C-84.10763274 61.6568688 -81.0246962 56.35499143 -78.0078125 51.0078125 C-77.65766083 50.38859924 -77.30750916 49.76938599 -76.94674683 49.13140869 C-74.86784348 45.45375431 -74.86784348 45.45375431 -72.80334473 41.76800537 C-64.43300008 26.75541111 -55.78385074 13.86378293 -40.23046875 5.79296875 C-39.60720703 5.46272705 -38.98394531 5.13248535 -38.34179688 4.79223633 C-26.4611415 -0.99216532 -12.8684695 -0.05283824 0 0 Z " fill="#94C723" transform="translate(176.10546875,75.76953125)"/>
<path d="M0 0 C1.58260872 -0.01925285 1.58260872 -0.01925285 3.19718933 -0.03889465 C4.33779312 -0.04628159 5.47839691 -0.05366852 6.65356445 -0.0612793 C7.82893265 -0.06935104 9.00430084 -0.07742279 10.21528625 -0.08573914 C12.70600917 -0.09957929 15.19675104 -0.11030175 17.6875 -0.11816406 C21.4845001 -0.13535163 25.28062388 -0.17923733 29.07739258 -0.22338867 C31.49861014 -0.23351795 33.9198351 -0.24203331 36.34106445 -0.2487793 C38.03678841 -0.27504143 38.03678841 -0.27504143 39.76676941 -0.30183411 C47.12878895 -0.28172072 52.89936123 0.59060295 58.4732666 5.67720032 C62.99489003 10.3982056 65.99858292 16.34423403 69.1494751 22.01589966 C70.87486647 25.12131761 72.6255588 28.21247408 74.37231445 31.3059082 C74.73405762 31.9481987 75.09580078 32.5904892 75.46850586 33.25224304 C79.88450076 41.07829303 84.45318723 48.81461813 89.02456665 56.55059814 C91.30884207 60.41689066 93.57686691 64.2921003 95.8293457 68.17700195 C96.42158936 69.19221924 97.01383301 70.20743652 97.62402344 71.25341797 C98.16744385 72.21046631 98.71086426 73.16751465 99.27075195 74.15356445 C99.74714111 74.98581543 100.22353027 75.81806641 100.71435547 76.67553711 C103.34327142 82.57347291 102.89139977 88.22685177 100.73950195 94.2043457 C98.94172588 97.97830311 96.93343919 101.56724158 94.8293457 105.17700195 C94.34626953 106.0174707 93.86319336 106.85793945 93.36547852 107.72387695 C90.49677994 112.71108037 87.59623587 117.67855961 84.6730957 122.6340332 C82.019597 127.13638169 79.39577319 131.6540671 76.7980957 136.1887207 C76.46515503 136.76927216 76.13221436 137.34982361 75.78918457 137.94796753 C74.18267672 140.74995117 72.57910201 143.55355147 70.97973633 146.35961914 C59.33319519 166.66098816 59.33319519 166.66098816 51.40576172 170.28491211 C46.14600196 171.59688987 41.00861706 171.50234231 35.60668945 171.51293945 C33.83933189 171.52292465 33.83933189 171.52292465 32.03627014 171.53311157 C29.55088865 171.54321655 27.06548014 171.54792926 24.58007812 171.54760742 C20.77664772 171.55199066 16.97436864 171.58836298 13.17114258 171.6262207 C10.75382883 171.63208722 8.33650959 171.63605771 5.91918945 171.63793945 C4.78263412 171.65231049 3.6460788 171.66668152 2.4750824 171.68148804 C-5.40110251 171.63582639 -5.40110251 171.63582639 -9.36376953 169.27319336 C-12.02835006 166.18197752 -12.70916125 163.814915 -12.64428711 159.69262695 C-11.56882797 153.98049759 -8.01174265 149.09393813 -5.0456543 144.17700195 C-4.31544201 142.93678842 -3.58694865 141.69556133 -2.86010742 140.45336914 C-1.00547462 137.29170844 0.86764205 134.14147421 2.74645996 130.99414062 C13.05643756 113.77270106 13.05643756 113.77270106 22.7043457 96.17700195 C23.03241211 95.57275391 23.36047852 94.96850586 23.69848633 94.34594727 C25.89044278 89.99881215 26.75301134 85.95324018 25.8293457 81.17700195 C24.47537389 77.65638186 22.70495605 74.44442944 20.8293457 71.17700195 C20.33982422 70.31075195 19.85030273 69.44450195 19.34594727 68.55200195 C17.73822487 65.74638874 16.1001369 62.96044223 14.4543457 60.17700195 C13.21937083 58.07448961 11.98501895 55.97161124 10.7512207 53.8684082 C10.11249023 52.78060059 9.47375977 51.69279297 8.81567383 50.57202148 C5.41967044 44.76759387 2.06190774 38.94122454 -1.2956543 33.11450195 C-1.92262207 32.02717773 -2.54958984 30.93985352 -3.19555664 29.81958008 C-4.35327877 27.81080466 -5.50887693 25.8008029 -6.66186523 23.78930664 C-7.58362774 22.19337479 -8.51650118 20.60371325 -9.46850586 19.02563477 C-12.36833634 14.18572249 -12.88508316 11.71382567 -12.1706543 6.17700195 C-8.88879451 0.85812575 -6.00570127 0.06367319 0 0 Z " fill="#0D1600" transform="translate(193.170654296875,114.822998046875)"/>
<path d="M0 0 C0.33 0.66 0.66 1.32 1 2 C0 4 -1 6 -2 8 C-2.144375 9.010625 -2.28875 10.02125 -2.4375 11.0625 C-3.12551718 14.65547862 -4.47462024 16.39809358 -7 19 C-7.66 19 -8.32 19 -9 19 C-9.33 21.31 -9.66 23.62 -10 26 C-10.99 26.33 -11.98 26.66 -13 27 C-12.938125 28.423125 -12.938125 28.423125 -12.875 29.875 C-13 33 -13 33 -15 35 C-15 22.33459332 -6.58457894 10.37570014 0 0 Z " fill="#95BD39" transform="translate(82,155)"/>
<path d="M0 0 C0.33 1.32 0.66 2.64 1 4 C0.01 4.33 -0.98 4.66 -2 5 C-3.09891088 7.26567893 -3.09891088 7.26567893 -4 10 C-4.86487623 11.94204026 -5.74002785 13.87953452 -6.625 15.8125 C-7.07101563 16.78832031 -7.51703125 17.76414062 -7.9765625 18.76953125 C-8.31429687 19.50558594 -8.65203125 20.24164063 -9 21 C-9.66 21 -10.32 21 -11 21 C-11 21.99 -11 22.98 -11 24 C-11.66 24 -12.32 24 -13 24 C-13 24.66 -13 25.32 -13 26 C-13.66 25.67 -14.32 25.34 -15 25 C-13.06695715 21.58079332 -11.12779392 18.16509634 -9.1875 14.75 C-8.36668945 13.29787109 -8.36668945 13.29787109 -7.52929688 11.81640625 C-6.99755859 10.88183594 -6.46582031 9.94726562 -5.91796875 8.984375 C-5.43094482 8.12553711 -4.9439209 7.26669922 -4.44213867 6.38183594 C-3.08206983 4.13554652 -1.61438682 2.06876029 0 0 Z " fill="#96BB3C" transform="translate(116,97)"/>
<path d="M0 0 C0.55558594 0.36867188 1.11117187 0.73734375 1.68359375 1.1171875 C0.14284567 1.74444858 -1.39905548 2.3688776 -2.94140625 2.9921875 C-4.318125 3.5490625 -4.318125 3.5490625 -5.72265625 4.1171875 C-8.31640625 5.1171875 -8.31640625 5.1171875 -11.44140625 5.9921875 C-15.61503914 7.62534819 -18.84900551 10.31862548 -22.31640625 13.1171875 C-22.97640625 12.7871875 -23.63640625 12.4571875 -24.31640625 12.1171875 C-5.89119526 -2.24521101 -5.89119526 -2.24521101 0 0 Z " fill="#94BB37" transform="translate(146.31640625,78.8828125)"/>
<path d="M0 0 C4.39692277 4.39692277 7.2247004 9.02773231 7.375 15.375 C7 19 7 19 5 21 C5 17.7 5 14.4 5 11 C4.34 11 3.68 11 3 11 C2.01 7.37 1.02 3.74 0 0 Z " fill="#91B633" transform="translate(213,185)"/>
<path d="M0 0 C3.18019683 2.9238411 5.25351309 5.83401169 7.3125 9.625 C7.84488281 10.58664063 8.37726563 11.54828125 8.92578125 12.5390625 C9.28027344 13.35117188 9.63476562 14.16328125 10 15 C9.67 15.66 9.34 16.32 9 17 C8.40251953 15.95199219 8.40251953 15.95199219 7.79296875 14.8828125 C7.26316406 13.97273437 6.73335938 13.06265625 6.1875 12.125 C5.66542969 11.22007812 5.14335937 10.31515625 4.60546875 9.3828125 C3.06266201 6.76726817 3.06266201 6.76726817 0 5 C-0.1875 2.375 -0.1875 2.375 0 0 Z " fill="#9BC041" transform="translate(316,154)"/>
<path d="M0 0 C0.97918775 3.07556958 1.1498998 3.68592423 -0.3125 6.75 C-0.869375 7.4925 -1.42625 8.235 -2 9 C-2.66 9 -3.32 9 -4 9 C-4.433125 10.4540625 -4.433125 10.4540625 -4.875 11.9375 C-6 15 -6 15 -8 16 C-6.42986223 10.03347646 -3.24970218 5.17090975 0 0 Z " fill="#99C23D" transform="translate(93,136)"/>
<path d="M0 0 C0.66 0.33 1.32 0.66 2 1 C-0.97 4.63 -3.94 8.26 -7 12 C-7.66 11.34 -8.32 10.68 -9 10 C-6.03 6.7 -3.06 3.4 0 0 Z " fill="#021201" transform="translate(283,304)"/>
<path d="M0 0 C0.33 0.99 0.66 1.98 1 3 C-0.43359375 5.69921875 -0.43359375 5.69921875 -2.4375 8.6875 C-3.42556641 10.17830078 -3.42556641 10.17830078 -4.43359375 11.69921875 C-5.20896484 12.83810547 -5.20896484 12.83810547 -6 14 C-6.33 13.34 -6.66 12.68 -7 12 C-6.67 11.01 -6.34 10.02 -6 9 C-5.34 9 -4.68 9 -4 9 C-3.896875 8.071875 -3.79375 7.14375 -3.6875 6.1875 C-2.9929808 2.96745642 -2.52259061 1.97420135 0 0 Z " fill="#96BF39" transform="translate(293,285)"/>
<path d="M0 0 C3.226345 3.80247803 5.77535219 7.55070439 8 12 C7.67 12.99 7.34 13.98 7 15 C5.82539808 13.06730041 4.66055528 11.12866687 3.5 9.1875 C2.8503125 8.10855469 2.200625 7.02960938 1.53125 5.91796875 C0 3 0 3 0 0 Z " fill="#98C03E" transform="translate(98,271)"/>
<path d="M0 0 C1.27351308 2.54702616 0.80191925 3.4282945 0.0625 6.125 C-0.13214844 6.84945312 -0.32679688 7.57390625 -0.52734375 8.3203125 C-0.76130859 9.15175781 -0.76130859 9.15175781 -1 10 C-1.99 9.67 -2.98 9.34 -4 9 C-4 9.66 -4 10.32 -4 11 C-4.66 10.67 -5.32 10.34 -6 10 C-4.02 6.7 -2.04 3.4 0 0 Z " fill="#9CC23C" transform="translate(293,210)"/>
<path d="M0 0 C1.32 0 2.64 0 4 0 C2.79157144 4.43090471 1.48331435 6.98112756 -2 10 C-1.46274105 6.62294375 -0.88935377 3.303314 0 0 Z " fill="#95BD38" transform="translate(298,272)"/>
<path d="M0 0 C4.4008703 3.82180842 5.80805531 6.47371099 7 12 C3.71534104 9.20803989 1.98678042 5.76803183 0 2 C0 1.34 0 0.68 0 0 Z " fill="#9EC33D" transform="translate(280,167)"/>
<path d="M0 0 C1.98 0.99 1.98 0.99 4 2 C4.33 2.99 4.66 3.98 5 5 C5.99 5.66 6.98 6.32 8 7 C7.34 7 6.68 7 6 7 C5.67 7.66 5.34 8.32 5 9 C3.35 6.03 1.7 3.06 0 0 Z " fill="#93BB3B" transform="translate(80,242)"/>
<path d="M0 0 C4.87685861 1.35468295 6.48592381 3.71675909 9 8 C4.7257442 6.4169423 2.73468206 3.49431596 0 0 Z " fill="#94B93F" transform="translate(117,304)"/>
<path d="M0 0 C0.66 0 1.32 0 2 0 C2.99 3.3 3.98 6.6 5 10 C2.07175348 7.07175348 0.72760033 4.7020007 -1 1 C-0.67 0.67 -0.34 0.34 0 0 Z " fill="#98C13C" transform="translate(107,286)"/>
<path d="M0 0 C0.33 0.99 0.66 1.98 1 3 C-0.9375 6.1875 -0.9375 6.1875 -3 9 C-4 7 -4 7 -3.1875 3.9375 C-2 1 -2 1 0 0 Z " fill="#9CC63B" transform="translate(196,243)"/>
<path d="" fill="#000000" transform="translate(0,0)"/>
<path d="" fill="#000000" transform="translate(0,0)"/>
<path d="" fill="#000000" transform="translate(0,0)"/>
<path d="" fill="#000000" transform="translate(0,0)"/>
<path d="" fill="#000000" transform="translate(0,0)"/>
<path d="" fill="#000000" transform="translate(0,0)"/>
<path d="" fill="#000000" transform="translate(0,0)"/>
<path d="M0 0 C2 1 2 1 2 1 Z " fill="#000000" transform="translate(357,400)"/>
<path d="M0 0 C2 1 2 1 2 1 Z " fill="#000000" transform="translate(41,400)"/>
<path d="M0 0 C2 1 2 1 2 1 Z " fill="#000000" transform="translate(361,399)"/>
<path d="M0 0 C2 1 2 1 2 1 Z " fill="#000000" transform="translate(37,399)"/>
<path d="M0 0 C2 1 2 1 2 1 Z " fill="#000000" transform="translate(27,394)"/>
<path d="" fill="#000000" transform="translate(0,0)"/>
<path d="" fill="#000000" transform="translate(0,0)"/>
<path d="" fill="#000000" transform="translate(0,0)"/>
<path d="" fill="#000000" transform="translate(0,0)"/>
<path d="" fill="#000000" transform="translate(0,0)"/>
<path d="" fill="#000000" transform="translate(0,0)"/>
<path d="" fill="#000000" transform="translate(0,0)"/>
<path d="" fill="#000000" transform="translate(0,0)"/>
<path d="M0 0 C2 1 2 1 2 1 Z " fill="#000000" transform="translate(371,6)"/>
<path d="M0 0 C2 1 2 1 2 1 Z " fill="#000000" transform="translate(361,1)"/>
<path d="M0 0 C2 1 2 1 2 1 Z " fill="#000000" transform="translate(37,1)"/>
<path d="M0 0 C2 1 2 1 2 1 Z " fill="#000000" transform="translate(357,0)"/>
<path d="M0 0 C2 1 2 1 2 1 Z " fill="#000000" transform="translate(41,0)"/>
<path d="" fill="#000000" transform="translate(0,0)"/>
<path d="" fill="#000000" transform="translate(0,0)"/>
<path d="" fill="#000000" transform="translate(0,0)"/>
<path d="" fill="#000000" transform="translate(0,0)"/>
<path d="" fill="#000000" transform="translate(0,0)"/>
<path d="" fill="#000000" transform="translate(0,0)"/>
<path d="" fill="#000000" transform="translate(0,0)"/>
<path d="" fill="#000000" transform="translate(0,0)"/>
<path d="" fill="#000000" transform="translate(0,0)"/>
<path d="" fill="#000000" transform="translate(0,0)"/>
<path d="" fill="#000000" transform="translate(0,0)"/>
<path d="" fill="#000000" transform="translate(0,0)"/>
<path d="" fill="#000000" transform="translate(0,0)"/>
<path d="" fill="#000000" transform="translate(0,0)"/>
<path d="" fill="#000000" transform="translate(0,0)"/>
<path d="" fill="#000000" transform="translate(0,0)"/>
<path d="" fill="#000000" transform="translate(0,0)"/>
<path d="" fill="#000000" transform="translate(0,0)"/>
<path d="" fill="#000000" transform="translate(0,0)"/>
<path d="" fill="#000000" transform="translate(0,0)"/>
<path d="" fill="#000000" transform="translate(0,0)"/>
<path d="" fill="#000000" transform="translate(0,0)"/>
<path d="" fill="#000000" transform="translate(0,0)"/>
<path d="" fill="#000000" transform="translate(0,0)"/>
<path d="" fill="#000000" transform="translate(0,0)"/>
<path d="" fill="#000000" transform="translate(0,0)"/>
<path d="" fill="#000000" transform="translate(0,0)"/>
<path d="" fill="#000000" transform="translate(0,0)"/>
<path d="" fill="#000000" transform="translate(0,0)"/>
<path d="" fill="#000000" transform="translate(0,0)"/>
<path d="" fill="#000000" transform="translate(0,0)"/>
<path d="" fill="#000000" transform="translate(0,0)"/>
<path d="" fill="#000000" transform="translate(0,0)"/>
<path d="" fill="#000000" transform="translate(0,0)"/>
<path d="" fill="#000000" transform="translate(0,0)"/>
<path d="" fill="#000000" transform="translate(0,0)"/>
<path d="" fill="#000000" transform="translate(0,0)"/>
<path d="" fill="#000000" transform="translate(0,0)"/>
<path d="" fill="#000000" transform="translate(0,0)"/>
<path d="" fill="#000000" transform="translate(0,0)"/>
<path d="" fill="#000000" transform="translate(0,0)"/>
<path d="" fill="#000000" transform="translate(0,0)"/>
<path d="" fill="#000000" transform="translate(0,0)"/>
<path d="" fill="#000000" transform="translate(0,0)"/>
<path d="" fill="#000000" transform="translate(0,0)"/>
<path d="" fill="#000000" transform="translate(0,0)"/>
<path d="" fill="#000000" transform="translate(0,0)"/>
<path d="" fill="#000000" transform="translate(0,0)"/>
<path d="" fill="#000000" transform="translate(0,0)"/>
<path d="" fill="#000000" transform="translate(0,0)"/>
<path d="" fill="#000000" transform="translate(0,0)"/>
<path d="" fill="#000000" transform="translate(0,0)"/>
<path d="" fill="#000000" transform="translate(0,0)"/>
<path d="" fill="#000000" transform="translate(0,0)"/>
<path d="" fill="#000000" transform="translate(0,0)"/>
<path d="" fill="#000000" transform="translate(0,0)"/>
<path d="" fill="#000000" transform="translate(0,0)"/>
<path d="" fill="#000000" transform="translate(0,0)"/>
<path d="" fill="#000000" transform="translate(0,0)"/>
<path d="" fill="#000000" transform="translate(0,0)"/>
<path d="" fill="#000000" transform="translate(0,0)"/>
<path d="" fill="#000000" transform="translate(0,0)"/>
<path d="" fill="#000000" transform="translate(0,0)"/>
<path d="" fill="#000000" transform="translate(0,0)"/>
<path d="" fill="#000000" transform="translate(0,0)"/>
<path d="" fill="#000000" transform="translate(0,0)"/>
<path d="" fill="#000000" transform="translate(0,0)"/>
<path d="" fill="#000000" transform="translate(0,0)"/>
<path d="" fill="#000000" transform="translate(0,0)"/>
<path d="" fill="#000000" transform="translate(0,0)"/>
<path d="" fill="#000000" transform="translate(0,0)"/>
<path d="" fill="#000000" transform="translate(0,0)"/>
<path d="" fill="#000000" transform="translate(0,0)"/>
<path d="" fill="#000000" transform="translate(0,0)"/>
<path d="" fill="#000000" transform="translate(0,0)"/>
<path d="" fill="#000000" transform="translate(0,0)"/>
<path d="" fill="#000000" transform="translate(0,0)"/>
<path d="" fill="#000000" transform="translate(0,0)"/>
<path d="" fill="#000000" transform="translate(0,0)"/>
<path d="" fill="#000000" transform="translate(0,0)"/>
<path d="" fill="#000000" transform="translate(0,0)"/>
<path d="" fill="#000000" transform="translate(0,0)"/>
<path d="" fill="#000000" transform="translate(0,0)"/>
<path d="" fill="#000000" transform="translate(0,0)"/>
<path d="" fill="#000000" transform="translate(0,0)"/>
<path d="" fill="#000000" transform="translate(0,0)"/>
<path d="" fill="#000000" transform="translate(0,0)"/>
<path d="" fill="#000000" transform="translate(0,0)"/>
<path d="" fill="#000000" transform="translate(0,0)"/>
<path d="" fill="#000000" transform="translate(0,0)"/>
<path d="" fill="#000000" transform="translate(0,0)"/>
</svg>
